<svg xmlns="http://www.w3.org/2000/svg" width="512" height="512" viewBox="0 0 512 512">
  <defs>
    <linearGradient id="bg" x1="0" y1="0" x2="0" y2="1">
      <stop offset="0" stop-color="#cd7a58"/>
      <stop offset="1" stop-color="#b85f3f"/>
    </linearGradient>
  </defs>
  <rect width="512" height="512" rx="116" fill="url(#bg)"/>
  <!-- receipt body -->
  <path fill="#fbf5ec" d="M170 96h172a16 16 0 0 1 16 16v300l-31-19-31 19-31-19-31 19-31-19-32 19V112a16 16 0 0 1 16-16z"/>
  <!-- lines -->
  <rect x="198" y="158" width="116" height="18" rx="9" fill="#c46a48"/>
  <rect x="198" y="204" width="116" height="14" rx="7" fill="#e7c9b8"/>
  <rect x="198" y="242" width="78"  height="14" rx="7" fill="#e7c9b8"/>
  <!-- dollar coin -->
  <circle cx="330" cy="298" r="52" fill="#2c2823"/>
  <text x="330" y="329" font-family="Georgia, 'Times New Roman', serif" font-size="74" font-weight="700" fill="#fbf5ec" text-anchor="middle">$</text>
</svg>
